%
M48
M72
T01C0.03200
T02C0.03543
T03C0.04000
T04C0.12598
%
T01
X327969Y67940
X327969Y91444
X357969Y91444
X357969Y67940
X357969Y169948
X327969Y169948
X327969Y248846
X357969Y248846
T02
X357969Y261712
X357969Y281397
X357969Y202657
X357969Y182972
X357969Y123916
X357969Y104231
X357969Y45176
X357969Y25491
X82378Y25491
X82378Y35334
X82378Y45176
X82378Y55019
X82378Y104231
X82378Y114074
X82378Y123916
X82378Y133759
X82378Y182972
X82378Y192814
X82378Y202657
X82378Y212499
X82378Y261712
X82378Y271554
X82378Y281397
X82378Y291239
T03
X46315Y206759
X46315Y196759
X46315Y186759
X46315Y176759
X46315Y166759
X46315Y156759
X46315Y146759
X46315Y136759
X46315Y126759
X46315Y116759
T04
X13992Y13964
X13992Y303137
X381906Y303137
X381709Y13964
M30
