G75*
%MOIN*%
%OFA0B0*%
%FSLAX25Y25*%
%IPPOS*%
%LPD*%
%AMOC8*
5,1,8,0,0,1.08239X$1,22.5*
%
%ADD10C,0.01600*%
%ADD11C,0.06600*%
%ADD12C,0.06000*%
%ADD13OC8,0.05200*%
%ADD14C,0.05543*%
D10*
X0171821Y0149409D02*
X0177959Y0149409D01*
X0174890Y0149409D02*
X0174890Y0167825D01*
X0177959Y0167825D01*
X0184098Y0161687D02*
X0187167Y0161687D01*
X0193306Y0155548D01*
X0193306Y0149409D02*
X0193306Y0161687D01*
X0199444Y0158617D02*
X0199444Y0149409D01*
X0208652Y0149409D01*
X0211721Y0152479D01*
X0208652Y0155548D01*
X0199444Y0155548D01*
X0199444Y0158617D02*
X0202513Y0161687D01*
X0208652Y0161687D01*
X0217860Y0164756D02*
X0220929Y0167825D01*
X0227068Y0167825D01*
X0230137Y0164756D01*
X0230137Y0152479D01*
X0227068Y0149409D01*
X0220929Y0149409D01*
X0217860Y0152479D01*
X0254691Y0155548D02*
X0260830Y0155548D01*
X0260830Y0158617D02*
X0254691Y0158617D01*
X0254691Y0146340D01*
X0250742Y0228150D02*
X0244603Y0228150D01*
X0241534Y0231219D01*
X0241534Y0234288D01*
X0244603Y0237357D01*
X0253811Y0237357D01*
X0253811Y0231219D01*
X0250742Y0228150D01*
X0259950Y0228150D02*
X0272227Y0228150D01*
X0266088Y0228150D02*
X0266088Y0246565D01*
X0272227Y0240427D01*
X0278365Y0243496D02*
X0290643Y0231219D01*
X0287573Y0228150D01*
X0281435Y0228150D01*
X0278365Y0231219D01*
X0278365Y0243496D01*
X0281435Y0246565D01*
X0287573Y0246565D01*
X0290643Y0243496D01*
X0290643Y0231219D01*
X0296781Y0228150D02*
X0309058Y0228150D01*
X0296781Y0240427D01*
X0296781Y0243496D01*
X0299850Y0246565D01*
X0305989Y0246565D01*
X0309058Y0243496D01*
X0253811Y0237357D02*
X0247672Y0243496D01*
X0241534Y0246565D01*
X0223118Y0246565D02*
X0235395Y0228150D01*
X0216980Y0231219D02*
X0216980Y0243496D01*
X0213910Y0246565D01*
X0207772Y0246565D01*
X0204702Y0243496D01*
X0216980Y0231219D01*
X0213910Y0228150D01*
X0207772Y0228150D01*
X0204702Y0231219D01*
X0204702Y0243496D01*
X0198564Y0243496D02*
X0195495Y0246565D01*
X0189356Y0246565D01*
X0186287Y0243496D01*
X0198564Y0231219D01*
X0195495Y0228150D01*
X0189356Y0228150D01*
X0186287Y0231219D01*
X0186287Y0243496D01*
X0180148Y0237357D02*
X0170940Y0237357D01*
X0167871Y0234288D01*
X0167871Y0231219D01*
X0170940Y0228150D01*
X0177079Y0228150D01*
X0180148Y0231219D01*
X0180148Y0237357D01*
X0174010Y0243496D01*
X0167871Y0246565D01*
X0143317Y0246565D02*
X0143317Y0234288D01*
X0137178Y0228150D01*
X0131039Y0234288D01*
X0131039Y0246565D01*
X0124901Y0243496D02*
X0121832Y0246565D01*
X0115693Y0246565D01*
X0112624Y0243496D01*
X0124901Y0231219D01*
X0121832Y0228150D01*
X0115693Y0228150D01*
X0112624Y0231219D01*
X0112624Y0243496D01*
X0106485Y0240427D02*
X0100347Y0246565D01*
X0100347Y0228150D01*
X0106485Y0228150D02*
X0094208Y0228150D01*
X0124901Y0231219D02*
X0124901Y0243496D01*
X0198564Y0243496D02*
X0198564Y0231219D01*
D11*
X0004328Y0013964D02*
X0004331Y0014201D01*
X0004340Y0014438D01*
X0004354Y0014675D01*
X0004375Y0014911D01*
X0004401Y0015147D01*
X0004433Y0015382D01*
X0004470Y0015616D01*
X0004514Y0015849D01*
X0004563Y0016081D01*
X0004618Y0016312D01*
X0004678Y0016542D01*
X0004744Y0016769D01*
X0004816Y0016995D01*
X0004893Y0017220D01*
X0004976Y0017442D01*
X0005064Y0017662D01*
X0005157Y0017880D01*
X0005256Y0018096D01*
X0005360Y0018309D01*
X0005469Y0018520D01*
X0005583Y0018727D01*
X0005703Y0018932D01*
X0005827Y0019134D01*
X0005957Y0019333D01*
X0006091Y0019529D01*
X0006230Y0019721D01*
X0006373Y0019910D01*
X0006522Y0020095D01*
X0006674Y0020276D01*
X0006831Y0020454D01*
X0006993Y0020628D01*
X0007159Y0020797D01*
X0007328Y0020963D01*
X0007502Y0021125D01*
X0007680Y0021282D01*
X0007861Y0021434D01*
X0008046Y0021583D01*
X0008235Y0021726D01*
X0008427Y0021865D01*
X0008623Y0021999D01*
X0008822Y0022129D01*
X0009024Y0022253D01*
X0009229Y0022373D01*
X0009436Y0022487D01*
X0009647Y0022596D01*
X0009860Y0022700D01*
X0010076Y0022799D01*
X0010294Y0022892D01*
X0010514Y0022980D01*
X0010736Y0023063D01*
X0010961Y0023140D01*
X0011187Y0023212D01*
X0011414Y0023278D01*
X0011644Y0023338D01*
X0011875Y0023393D01*
X0012107Y0023442D01*
X0012340Y0023486D01*
X0012574Y0023523D01*
X0012809Y0023555D01*
X0013045Y0023581D01*
X0013281Y0023602D01*
X0013518Y0023616D01*
X0013755Y0023625D01*
X0013992Y0023628D01*
X0014229Y0023625D01*
X0014466Y0023616D01*
X0014703Y0023602D01*
X0014939Y0023581D01*
X0015175Y0023555D01*
X0015410Y0023523D01*
X0015644Y0023486D01*
X0015877Y0023442D01*
X0016109Y0023393D01*
X0016340Y0023338D01*
X0016570Y0023278D01*
X0016797Y0023212D01*
X0017023Y0023140D01*
X0017248Y0023063D01*
X0017470Y0022980D01*
X0017690Y0022892D01*
X0017908Y0022799D01*
X0018124Y0022700D01*
X0018337Y0022596D01*
X0018548Y0022487D01*
X0018755Y0022373D01*
X0018960Y0022253D01*
X0019162Y0022129D01*
X0019361Y0021999D01*
X0019557Y0021865D01*
X0019749Y0021726D01*
X0019938Y0021583D01*
X0020123Y0021434D01*
X0020304Y0021282D01*
X0020482Y0021125D01*
X0020656Y0020963D01*
X0020825Y0020797D01*
X0020991Y0020628D01*
X0021153Y0020454D01*
X0021310Y0020276D01*
X0021462Y0020095D01*
X0021611Y0019910D01*
X0021754Y0019721D01*
X0021893Y0019529D01*
X0022027Y0019333D01*
X0022157Y0019134D01*
X0022281Y0018932D01*
X0022401Y0018727D01*
X0022515Y0018520D01*
X0022624Y0018309D01*
X0022728Y0018096D01*
X0022827Y0017880D01*
X0022920Y0017662D01*
X0023008Y0017442D01*
X0023091Y0017220D01*
X0023168Y0016995D01*
X0023240Y0016769D01*
X0023306Y0016542D01*
X0023366Y0016312D01*
X0023421Y0016081D01*
X0023470Y0015849D01*
X0023514Y0015616D01*
X0023551Y0015382D01*
X0023583Y0015147D01*
X0023609Y0014911D01*
X0023630Y0014675D01*
X0023644Y0014438D01*
X0023653Y0014201D01*
X0023656Y0013964D01*
X0023653Y0013727D01*
X0023644Y0013490D01*
X0023630Y0013253D01*
X0023609Y0013017D01*
X0023583Y0012781D01*
X0023551Y0012546D01*
X0023514Y0012312D01*
X0023470Y0012079D01*
X0023421Y0011847D01*
X0023366Y0011616D01*
X0023306Y0011386D01*
X0023240Y0011159D01*
X0023168Y0010933D01*
X0023091Y0010708D01*
X0023008Y0010486D01*
X0022920Y0010266D01*
X0022827Y0010048D01*
X0022728Y0009832D01*
X0022624Y0009619D01*
X0022515Y0009408D01*
X0022401Y0009201D01*
X0022281Y0008996D01*
X0022157Y0008794D01*
X0022027Y0008595D01*
X0021893Y0008399D01*
X0021754Y0008207D01*
X0021611Y0008018D01*
X0021462Y0007833D01*
X0021310Y0007652D01*
X0021153Y0007474D01*
X0020991Y0007300D01*
X0020825Y0007131D01*
X0020656Y0006965D01*
X0020482Y0006803D01*
X0020304Y0006646D01*
X0020123Y0006494D01*
X0019938Y0006345D01*
X0019749Y0006202D01*
X0019557Y0006063D01*
X0019361Y0005929D01*
X0019162Y0005799D01*
X0018960Y0005675D01*
X0018755Y0005555D01*
X0018548Y0005441D01*
X0018337Y0005332D01*
X0018124Y0005228D01*
X0017908Y0005129D01*
X0017690Y0005036D01*
X0017470Y0004948D01*
X0017248Y0004865D01*
X0017023Y0004788D01*
X0016797Y0004716D01*
X0016570Y0004650D01*
X0016340Y0004590D01*
X0016109Y0004535D01*
X0015877Y0004486D01*
X0015644Y0004442D01*
X0015410Y0004405D01*
X0015175Y0004373D01*
X0014939Y0004347D01*
X0014703Y0004326D01*
X0014466Y0004312D01*
X0014229Y0004303D01*
X0013992Y0004300D01*
X0013755Y0004303D01*
X0013518Y0004312D01*
X0013281Y0004326D01*
X0013045Y0004347D01*
X0012809Y0004373D01*
X0012574Y0004405D01*
X0012340Y0004442D01*
X0012107Y0004486D01*
X0011875Y0004535D01*
X0011644Y0004590D01*
X0011414Y0004650D01*
X0011187Y0004716D01*
X0010961Y0004788D01*
X0010736Y0004865D01*
X0010514Y0004948D01*
X0010294Y0005036D01*
X0010076Y0005129D01*
X0009860Y0005228D01*
X0009647Y0005332D01*
X0009436Y0005441D01*
X0009229Y0005555D01*
X0009024Y0005675D01*
X0008822Y0005799D01*
X0008623Y0005929D01*
X0008427Y0006063D01*
X0008235Y0006202D01*
X0008046Y0006345D01*
X0007861Y0006494D01*
X0007680Y0006646D01*
X0007502Y0006803D01*
X0007328Y0006965D01*
X0007159Y0007131D01*
X0006993Y0007300D01*
X0006831Y0007474D01*
X0006674Y0007652D01*
X0006522Y0007833D01*
X0006373Y0008018D01*
X0006230Y0008207D01*
X0006091Y0008399D01*
X0005957Y0008595D01*
X0005827Y0008794D01*
X0005703Y0008996D01*
X0005583Y0009201D01*
X0005469Y0009408D01*
X0005360Y0009619D01*
X0005256Y0009832D01*
X0005157Y0010048D01*
X0005064Y0010266D01*
X0004976Y0010486D01*
X0004893Y0010708D01*
X0004816Y0010933D01*
X0004744Y0011159D01*
X0004678Y0011386D01*
X0004618Y0011616D01*
X0004563Y0011847D01*
X0004514Y0012079D01*
X0004470Y0012312D01*
X0004433Y0012546D01*
X0004401Y0012781D01*
X0004375Y0013017D01*
X0004354Y0013253D01*
X0004340Y0013490D01*
X0004331Y0013727D01*
X0004328Y0013964D01*
X0046315Y0025348D02*
X0066361Y0005302D01*
X0113900Y0005302D01*
X0144898Y0036257D01*
X0144898Y0048983D01*
X0150544Y0054625D01*
X0343323Y0054625D01*
X0343323Y0052807D01*
X0350954Y0045176D01*
X0357969Y0045176D01*
X0343323Y0054625D02*
X0342929Y0123916D01*
X0357969Y0123916D01*
X0342929Y0123916D02*
X0342929Y0202657D01*
X0357969Y0202657D01*
X0342929Y0202657D02*
X0342929Y0271747D01*
X0352579Y0281397D01*
X0357969Y0281397D01*
X0357969Y0261712D02*
X0357969Y0248846D01*
X0327969Y0248846D02*
X0327969Y0169948D01*
X0327969Y0091444D01*
X0328362Y0067310D01*
X0327969Y0067940D02*
X0144804Y0067940D01*
X0131118Y0054254D01*
X0131118Y0041760D01*
X0104503Y0015145D01*
X0072378Y0015145D01*
X0064780Y0022743D01*
X0064780Y0035768D01*
X0074188Y0045176D01*
X0082378Y0045176D01*
X0082378Y0045066D01*
X0093844Y0045066D01*
X0104150Y0055372D01*
X0104150Y0123916D01*
X0082378Y0123916D01*
X0082378Y0133759D02*
X0082378Y0143273D01*
X0068892Y0156759D01*
X0046315Y0156759D01*
X0046315Y0146838D02*
X0046315Y0146759D01*
X0046315Y0146838D02*
X0058762Y0146838D01*
X0069898Y0135702D01*
X0069898Y0109915D01*
X0075581Y0104231D01*
X0082378Y0104231D01*
X0104150Y0123916D02*
X0104150Y0202657D01*
X0082378Y0202657D01*
X0074729Y0212499D02*
X0069898Y0207668D01*
X0069898Y0187549D01*
X0059304Y0176956D01*
X0046315Y0176956D01*
X0046315Y0176759D01*
X0046315Y0166759D02*
X0071141Y0166759D01*
X0082378Y0177996D01*
X0082378Y0182972D01*
X0059465Y0193063D02*
X0059465Y0245592D01*
X0075671Y0261798D01*
X0082378Y0261798D01*
X0082378Y0261712D01*
X0082378Y0281397D02*
X0075740Y0281397D01*
X0046315Y0251972D01*
X0046315Y0206759D01*
X0046315Y0197035D02*
X0038112Y0197035D01*
X0031709Y0203438D01*
X0031709Y0257000D01*
X0065948Y0291239D01*
X0082378Y0291239D01*
X0082378Y0281397D02*
X0095141Y0281397D01*
X0104150Y0272388D01*
X0104150Y0202657D01*
X0082378Y0212499D02*
X0074729Y0212499D01*
X0059465Y0193063D02*
X0053161Y0186759D01*
X0046315Y0186759D01*
X0046315Y0196759D02*
X0046315Y0197035D01*
X0021669Y0144333D02*
X0021669Y0264322D01*
X0060091Y0302743D01*
X0093361Y0302743D01*
X0117929Y0278175D01*
X0117929Y0047095D01*
X0096019Y0025184D01*
X0082378Y0025184D01*
X0082378Y0025491D01*
X0082378Y0055019D02*
X0082378Y0055302D01*
X0073916Y0055302D01*
X0059268Y0069950D01*
X0059268Y0130799D01*
X0053308Y0136759D01*
X0046315Y0136759D01*
X0046315Y0126759D02*
X0039243Y0126759D01*
X0021669Y0144333D01*
X0046315Y0116759D02*
X0046315Y0025348D01*
X0327969Y0067940D02*
X0327969Y0091444D01*
X0357969Y0091444D02*
X0357969Y0104231D01*
X0357969Y0067901D02*
X0364537Y0067901D01*
X0372654Y0059784D01*
X0372654Y0033229D01*
X0364916Y0025491D01*
X0357969Y0025491D01*
X0372045Y0013964D02*
X0372048Y0014201D01*
X0372057Y0014438D01*
X0372071Y0014675D01*
X0372092Y0014911D01*
X0372118Y0015147D01*
X0372150Y0015382D01*
X0372187Y0015616D01*
X0372231Y0015849D01*
X0372280Y0016081D01*
X0372335Y0016312D01*
X0372395Y0016542D01*
X0372461Y0016769D01*
X0372533Y0016995D01*
X0372610Y0017220D01*
X0372693Y0017442D01*
X0372781Y0017662D01*
X0372874Y0017880D01*
X0372973Y0018096D01*
X0373077Y0018309D01*
X0373186Y0018520D01*
X0373300Y0018727D01*
X0373420Y0018932D01*
X0373544Y0019134D01*
X0373674Y0019333D01*
X0373808Y0019529D01*
X0373947Y0019721D01*
X0374090Y0019910D01*
X0374239Y0020095D01*
X0374391Y0020276D01*
X0374548Y0020454D01*
X0374710Y0020628D01*
X0374876Y0020797D01*
X0375045Y0020963D01*
X0375219Y0021125D01*
X0375397Y0021282D01*
X0375578Y0021434D01*
X0375763Y0021583D01*
X0375952Y0021726D01*
X0376144Y0021865D01*
X0376340Y0021999D01*
X0376539Y0022129D01*
X0376741Y0022253D01*
X0376946Y0022373D01*
X0377153Y0022487D01*
X0377364Y0022596D01*
X0377577Y0022700D01*
X0377793Y0022799D01*
X0378011Y0022892D01*
X0378231Y0022980D01*
X0378453Y0023063D01*
X0378678Y0023140D01*
X0378904Y0023212D01*
X0379131Y0023278D01*
X0379361Y0023338D01*
X0379592Y0023393D01*
X0379824Y0023442D01*
X0380057Y0023486D01*
X0380291Y0023523D01*
X0380526Y0023555D01*
X0380762Y0023581D01*
X0380998Y0023602D01*
X0381235Y0023616D01*
X0381472Y0023625D01*
X0381709Y0023628D01*
X0381946Y0023625D01*
X0382183Y0023616D01*
X0382420Y0023602D01*
X0382656Y0023581D01*
X0382892Y0023555D01*
X0383127Y0023523D01*
X0383361Y0023486D01*
X0383594Y0023442D01*
X0383826Y0023393D01*
X0384057Y0023338D01*
X0384287Y0023278D01*
X0384514Y0023212D01*
X0384740Y0023140D01*
X0384965Y0023063D01*
X0385187Y0022980D01*
X0385407Y0022892D01*
X0385625Y0022799D01*
X0385841Y0022700D01*
X0386054Y0022596D01*
X0386265Y0022487D01*
X0386472Y0022373D01*
X0386677Y0022253D01*
X0386879Y0022129D01*
X0387078Y0021999D01*
X0387274Y0021865D01*
X0387466Y0021726D01*
X0387655Y0021583D01*
X0387840Y0021434D01*
X0388021Y0021282D01*
X0388199Y0021125D01*
X0388373Y0020963D01*
X0388542Y0020797D01*
X0388708Y0020628D01*
X0388870Y0020454D01*
X0389027Y0020276D01*
X0389179Y0020095D01*
X0389328Y0019910D01*
X0389471Y0019721D01*
X0389610Y0019529D01*
X0389744Y0019333D01*
X0389874Y0019134D01*
X0389998Y0018932D01*
X0390118Y0018727D01*
X0390232Y0018520D01*
X0390341Y0018309D01*
X0390445Y0018096D01*
X0390544Y0017880D01*
X0390637Y0017662D01*
X0390725Y0017442D01*
X0390808Y0017220D01*
X0390885Y0016995D01*
X0390957Y0016769D01*
X0391023Y0016542D01*
X0391083Y0016312D01*
X0391138Y0016081D01*
X0391187Y0015849D01*
X0391231Y0015616D01*
X0391268Y0015382D01*
X0391300Y0015147D01*
X0391326Y0014911D01*
X0391347Y0014675D01*
X0391361Y0014438D01*
X0391370Y0014201D01*
X0391373Y0013964D01*
X0391370Y0013727D01*
X0391361Y0013490D01*
X0391347Y0013253D01*
X0391326Y0013017D01*
X0391300Y0012781D01*
X0391268Y0012546D01*
X0391231Y0012312D01*
X0391187Y0012079D01*
X0391138Y0011847D01*
X0391083Y0011616D01*
X0391023Y0011386D01*
X0390957Y0011159D01*
X0390885Y0010933D01*
X0390808Y0010708D01*
X0390725Y0010486D01*
X0390637Y0010266D01*
X0390544Y0010048D01*
X0390445Y0009832D01*
X0390341Y0009619D01*
X0390232Y0009408D01*
X0390118Y0009201D01*
X0389998Y0008996D01*
X0389874Y0008794D01*
X0389744Y0008595D01*
X0389610Y0008399D01*
X0389471Y0008207D01*
X0389328Y0008018D01*
X0389179Y0007833D01*
X0389027Y0007652D01*
X0388870Y0007474D01*
X0388708Y0007300D01*
X0388542Y0007131D01*
X0388373Y0006965D01*
X0388199Y0006803D01*
X0388021Y0006646D01*
X0387840Y0006494D01*
X0387655Y0006345D01*
X0387466Y0006202D01*
X0387274Y0006063D01*
X0387078Y0005929D01*
X0386879Y0005799D01*
X0386677Y0005675D01*
X0386472Y0005555D01*
X0386265Y0005441D01*
X0386054Y0005332D01*
X0385841Y0005228D01*
X0385625Y0005129D01*
X0385407Y0005036D01*
X0385187Y0004948D01*
X0384965Y0004865D01*
X0384740Y0004788D01*
X0384514Y0004716D01*
X0384287Y0004650D01*
X0384057Y0004590D01*
X0383826Y0004535D01*
X0383594Y0004486D01*
X0383361Y0004442D01*
X0383127Y0004405D01*
X0382892Y0004373D01*
X0382656Y0004347D01*
X0382420Y0004326D01*
X0382183Y0004312D01*
X0381946Y0004303D01*
X0381709Y0004300D01*
X0381472Y0004303D01*
X0381235Y0004312D01*
X0380998Y0004326D01*
X0380762Y0004347D01*
X0380526Y0004373D01*
X0380291Y0004405D01*
X0380057Y0004442D01*
X0379824Y0004486D01*
X0379592Y0004535D01*
X0379361Y0004590D01*
X0379131Y0004650D01*
X0378904Y0004716D01*
X0378678Y0004788D01*
X0378453Y0004865D01*
X0378231Y0004948D01*
X0378011Y0005036D01*
X0377793Y0005129D01*
X0377577Y0005228D01*
X0377364Y0005332D01*
X0377153Y0005441D01*
X0376946Y0005555D01*
X0376741Y0005675D01*
X0376539Y0005799D01*
X0376340Y0005929D01*
X0376144Y0006063D01*
X0375952Y0006202D01*
X0375763Y0006345D01*
X0375578Y0006494D01*
X0375397Y0006646D01*
X0375219Y0006803D01*
X0375045Y0006965D01*
X0374876Y0007131D01*
X0374710Y0007300D01*
X0374548Y0007474D01*
X0374391Y0007652D01*
X0374239Y0007833D01*
X0374090Y0008018D01*
X0373947Y0008207D01*
X0373808Y0008399D01*
X0373674Y0008595D01*
X0373544Y0008794D01*
X0373420Y0008996D01*
X0373300Y0009201D01*
X0373186Y0009408D01*
X0373077Y0009619D01*
X0372973Y0009832D01*
X0372874Y0010048D01*
X0372781Y0010266D01*
X0372693Y0010486D01*
X0372610Y0010708D01*
X0372533Y0010933D01*
X0372461Y0011159D01*
X0372395Y0011386D01*
X0372335Y0011616D01*
X0372280Y0011847D01*
X0372231Y0012079D01*
X0372187Y0012312D01*
X0372150Y0012546D01*
X0372118Y0012781D01*
X0372092Y0013017D01*
X0372071Y0013253D01*
X0372057Y0013490D01*
X0372048Y0013727D01*
X0372045Y0013964D01*
X0357969Y0169948D02*
X0357969Y0182972D01*
X0372242Y0303137D02*
X0372245Y0303374D01*
X0372254Y0303611D01*
X0372268Y0303848D01*
X0372289Y0304084D01*
X0372315Y0304320D01*
X0372347Y0304555D01*
X0372384Y0304789D01*
X0372428Y0305022D01*
X0372477Y0305254D01*
X0372532Y0305485D01*
X0372592Y0305715D01*
X0372658Y0305942D01*
X0372730Y0306168D01*
X0372807Y0306393D01*
X0372890Y0306615D01*
X0372978Y0306835D01*
X0373071Y0307053D01*
X0373170Y0307269D01*
X0373274Y0307482D01*
X0373383Y0307693D01*
X0373497Y0307900D01*
X0373617Y0308105D01*
X0373741Y0308307D01*
X0373871Y0308506D01*
X0374005Y0308702D01*
X0374144Y0308894D01*
X0374287Y0309083D01*
X0374436Y0309268D01*
X0374588Y0309449D01*
X0374745Y0309627D01*
X0374907Y0309801D01*
X0375073Y0309970D01*
X0375242Y0310136D01*
X0375416Y0310298D01*
X0375594Y0310455D01*
X0375775Y0310607D01*
X0375960Y0310756D01*
X0376149Y0310899D01*
X0376341Y0311038D01*
X0376537Y0311172D01*
X0376736Y0311302D01*
X0376938Y0311426D01*
X0377143Y0311546D01*
X0377350Y0311660D01*
X0377561Y0311769D01*
X0377774Y0311873D01*
X0377990Y0311972D01*
X0378208Y0312065D01*
X0378428Y0312153D01*
X0378650Y0312236D01*
X0378875Y0312313D01*
X0379101Y0312385D01*
X0379328Y0312451D01*
X0379558Y0312511D01*
X0379789Y0312566D01*
X0380021Y0312615D01*
X0380254Y0312659D01*
X0380488Y0312696D01*
X0380723Y0312728D01*
X0380959Y0312754D01*
X0381195Y0312775D01*
X0381432Y0312789D01*
X0381669Y0312798D01*
X0381906Y0312801D01*
X0382143Y0312798D01*
X0382380Y0312789D01*
X0382617Y0312775D01*
X0382853Y0312754D01*
X0383089Y0312728D01*
X0383324Y0312696D01*
X0383558Y0312659D01*
X0383791Y0312615D01*
X0384023Y0312566D01*
X0384254Y0312511D01*
X0384484Y0312451D01*
X0384711Y0312385D01*
X0384937Y0312313D01*
X0385162Y0312236D01*
X0385384Y0312153D01*
X0385604Y0312065D01*
X0385822Y0311972D01*
X0386038Y0311873D01*
X0386251Y0311769D01*
X0386462Y0311660D01*
X0386669Y0311546D01*
X0386874Y0311426D01*
X0387076Y0311302D01*
X0387275Y0311172D01*
X0387471Y0311038D01*
X0387663Y0310899D01*
X0387852Y0310756D01*
X0388037Y0310607D01*
X0388218Y0310455D01*
X0388396Y0310298D01*
X0388570Y0310136D01*
X0388739Y0309970D01*
X0388905Y0309801D01*
X0389067Y0309627D01*
X0389224Y0309449D01*
X0389376Y0309268D01*
X0389525Y0309083D01*
X0389668Y0308894D01*
X0389807Y0308702D01*
X0389941Y0308506D01*
X0390071Y0308307D01*
X0390195Y0308105D01*
X0390315Y0307900D01*
X0390429Y0307693D01*
X0390538Y0307482D01*
X0390642Y0307269D01*
X0390741Y0307053D01*
X0390834Y0306835D01*
X0390922Y0306615D01*
X0391005Y0306393D01*
X0391082Y0306168D01*
X0391154Y0305942D01*
X0391220Y0305715D01*
X0391280Y0305485D01*
X0391335Y0305254D01*
X0391384Y0305022D01*
X0391428Y0304789D01*
X0391465Y0304555D01*
X0391497Y0304320D01*
X0391523Y0304084D01*
X0391544Y0303848D01*
X0391558Y0303611D01*
X0391567Y0303374D01*
X0391570Y0303137D01*
X0391567Y0302900D01*
X0391558Y0302663D01*
X0391544Y0302426D01*
X0391523Y0302190D01*
X0391497Y0301954D01*
X0391465Y0301719D01*
X0391428Y0301485D01*
X0391384Y0301252D01*
X0391335Y0301020D01*
X0391280Y0300789D01*
X0391220Y0300559D01*
X0391154Y0300332D01*
X0391082Y0300106D01*
X0391005Y0299881D01*
X0390922Y0299659D01*
X0390834Y0299439D01*
X0390741Y0299221D01*
X0390642Y0299005D01*
X0390538Y0298792D01*
X0390429Y0298581D01*
X0390315Y0298374D01*
X0390195Y0298169D01*
X0390071Y0297967D01*
X0389941Y0297768D01*
X0389807Y0297572D01*
X0389668Y0297380D01*
X0389525Y0297191D01*
X0389376Y0297006D01*
X0389224Y0296825D01*
X0389067Y0296647D01*
X0388905Y0296473D01*
X0388739Y0296304D01*
X0388570Y0296138D01*
X0388396Y0295976D01*
X0388218Y0295819D01*
X0388037Y0295667D01*
X0387852Y0295518D01*
X0387663Y0295375D01*
X0387471Y0295236D01*
X0387275Y0295102D01*
X0387076Y0294972D01*
X0386874Y0294848D01*
X0386669Y0294728D01*
X0386462Y0294614D01*
X0386251Y0294505D01*
X0386038Y0294401D01*
X0385822Y0294302D01*
X0385604Y0294209D01*
X0385384Y0294121D01*
X0385162Y0294038D01*
X0384937Y0293961D01*
X0384711Y0293889D01*
X0384484Y0293823D01*
X0384254Y0293763D01*
X0384023Y0293708D01*
X0383791Y0293659D01*
X0383558Y0293615D01*
X0383324Y0293578D01*
X0383089Y0293546D01*
X0382853Y0293520D01*
X0382617Y0293499D01*
X0382380Y0293485D01*
X0382143Y0293476D01*
X0381906Y0293473D01*
X0381669Y0293476D01*
X0381432Y0293485D01*
X0381195Y0293499D01*
X0380959Y0293520D01*
X0380723Y0293546D01*
X0380488Y0293578D01*
X0380254Y0293615D01*
X0380021Y0293659D01*
X0379789Y0293708D01*
X0379558Y0293763D01*
X0379328Y0293823D01*
X0379101Y0293889D01*
X0378875Y0293961D01*
X0378650Y0294038D01*
X0378428Y0294121D01*
X0378208Y0294209D01*
X0377990Y0294302D01*
X0377774Y0294401D01*
X0377561Y0294505D01*
X0377350Y0294614D01*
X0377143Y0294728D01*
X0376938Y0294848D01*
X0376736Y0294972D01*
X0376537Y0295102D01*
X0376341Y0295236D01*
X0376149Y0295375D01*
X0375960Y0295518D01*
X0375775Y0295667D01*
X0375594Y0295819D01*
X0375416Y0295976D01*
X0375242Y0296138D01*
X0375073Y0296304D01*
X0374907Y0296473D01*
X0374745Y0296647D01*
X0374588Y0296825D01*
X0374436Y0297006D01*
X0374287Y0297191D01*
X0374144Y0297380D01*
X0374005Y0297572D01*
X0373871Y0297768D01*
X0373741Y0297967D01*
X0373617Y0298169D01*
X0373497Y0298374D01*
X0373383Y0298581D01*
X0373274Y0298792D01*
X0373170Y0299005D01*
X0373071Y0299221D01*
X0372978Y0299439D01*
X0372890Y0299659D01*
X0372807Y0299881D01*
X0372730Y0300106D01*
X0372658Y0300332D01*
X0372592Y0300559D01*
X0372532Y0300789D01*
X0372477Y0301020D01*
X0372428Y0301252D01*
X0372384Y0301485D01*
X0372347Y0301719D01*
X0372315Y0301954D01*
X0372289Y0302190D01*
X0372268Y0302426D01*
X0372254Y0302663D01*
X0372245Y0302900D01*
X0372242Y0303137D01*
X0004328Y0303137D02*
X0004331Y0303374D01*
X0004340Y0303611D01*
X0004354Y0303848D01*
X0004375Y0304084D01*
X0004401Y0304320D01*
X0004433Y0304555D01*
X0004470Y0304789D01*
X0004514Y0305022D01*
X0004563Y0305254D01*
X0004618Y0305485D01*
X0004678Y0305715D01*
X0004744Y0305942D01*
X0004816Y0306168D01*
X0004893Y0306393D01*
X0004976Y0306615D01*
X0005064Y0306835D01*
X0005157Y0307053D01*
X0005256Y0307269D01*
X0005360Y0307482D01*
X0005469Y0307693D01*
X0005583Y0307900D01*
X0005703Y0308105D01*
X0005827Y0308307D01*
X0005957Y0308506D01*
X0006091Y0308702D01*
X0006230Y0308894D01*
X0006373Y0309083D01*
X0006522Y0309268D01*
X0006674Y0309449D01*
X0006831Y0309627D01*
X0006993Y0309801D01*
X0007159Y0309970D01*
X0007328Y0310136D01*
X0007502Y0310298D01*
X0007680Y0310455D01*
X0007861Y0310607D01*
X0008046Y0310756D01*
X0008235Y0310899D01*
X0008427Y0311038D01*
X0008623Y0311172D01*
X0008822Y0311302D01*
X0009024Y0311426D01*
X0009229Y0311546D01*
X0009436Y0311660D01*
X0009647Y0311769D01*
X0009860Y0311873D01*
X0010076Y0311972D01*
X0010294Y0312065D01*
X0010514Y0312153D01*
X0010736Y0312236D01*
X0010961Y0312313D01*
X0011187Y0312385D01*
X0011414Y0312451D01*
X0011644Y0312511D01*
X0011875Y0312566D01*
X0012107Y0312615D01*
X0012340Y0312659D01*
X0012574Y0312696D01*
X0012809Y0312728D01*
X0013045Y0312754D01*
X0013281Y0312775D01*
X0013518Y0312789D01*
X0013755Y0312798D01*
X0013992Y0312801D01*
X0014229Y0312798D01*
X0014466Y0312789D01*
X0014703Y0312775D01*
X0014939Y0312754D01*
X0015175Y0312728D01*
X0015410Y0312696D01*
X0015644Y0312659D01*
X0015877Y0312615D01*
X0016109Y0312566D01*
X0016340Y0312511D01*
X0016570Y0312451D01*
X0016797Y0312385D01*
X0017023Y0312313D01*
X0017248Y0312236D01*
X0017470Y0312153D01*
X0017690Y0312065D01*
X0017908Y0311972D01*
X0018124Y0311873D01*
X0018337Y0311769D01*
X0018548Y0311660D01*
X0018755Y0311546D01*
X0018960Y0311426D01*
X0019162Y0311302D01*
X0019361Y0311172D01*
X0019557Y0311038D01*
X0019749Y0310899D01*
X0019938Y0310756D01*
X0020123Y0310607D01*
X0020304Y0310455D01*
X0020482Y0310298D01*
X0020656Y0310136D01*
X0020825Y0309970D01*
X0020991Y0309801D01*
X0021153Y0309627D01*
X0021310Y0309449D01*
X0021462Y0309268D01*
X0021611Y0309083D01*
X0021754Y0308894D01*
X0021893Y0308702D01*
X0022027Y0308506D01*
X0022157Y0308307D01*
X0022281Y0308105D01*
X0022401Y0307900D01*
X0022515Y0307693D01*
X0022624Y0307482D01*
X0022728Y0307269D01*
X0022827Y0307053D01*
X0022920Y0306835D01*
X0023008Y0306615D01*
X0023091Y0306393D01*
X0023168Y0306168D01*
X0023240Y0305942D01*
X0023306Y0305715D01*
X0023366Y0305485D01*
X0023421Y0305254D01*
X0023470Y0305022D01*
X0023514Y0304789D01*
X0023551Y0304555D01*
X0023583Y0304320D01*
X0023609Y0304084D01*
X0023630Y0303848D01*
X0023644Y0303611D01*
X0023653Y0303374D01*
X0023656Y0303137D01*
X0023653Y0302900D01*
X0023644Y0302663D01*
X0023630Y0302426D01*
X0023609Y0302190D01*
X0023583Y0301954D01*
X0023551Y0301719D01*
X0023514Y0301485D01*
X0023470Y0301252D01*
X0023421Y0301020D01*
X0023366Y0300789D01*
X0023306Y0300559D01*
X0023240Y0300332D01*
X0023168Y0300106D01*
X0023091Y0299881D01*
X0023008Y0299659D01*
X0022920Y0299439D01*
X0022827Y0299221D01*
X0022728Y0299005D01*
X0022624Y0298792D01*
X0022515Y0298581D01*
X0022401Y0298374D01*
X0022281Y0298169D01*
X0022157Y0297967D01*
X0022027Y0297768D01*
X0021893Y0297572D01*
X0021754Y0297380D01*
X0021611Y0297191D01*
X0021462Y0297006D01*
X0021310Y0296825D01*
X0021153Y0296647D01*
X0020991Y0296473D01*
X0020825Y0296304D01*
X0020656Y0296138D01*
X0020482Y0295976D01*
X0020304Y0295819D01*
X0020123Y0295667D01*
X0019938Y0295518D01*
X0019749Y0295375D01*
X0019557Y0295236D01*
X0019361Y0295102D01*
X0019162Y0294972D01*
X0018960Y0294848D01*
X0018755Y0294728D01*
X0018548Y0294614D01*
X0018337Y0294505D01*
X0018124Y0294401D01*
X0017908Y0294302D01*
X0017690Y0294209D01*
X0017470Y0294121D01*
X0017248Y0294038D01*
X0017023Y0293961D01*
X0016797Y0293889D01*
X0016570Y0293823D01*
X0016340Y0293763D01*
X0016109Y0293708D01*
X0015877Y0293659D01*
X0015644Y0293615D01*
X0015410Y0293578D01*
X0015175Y0293546D01*
X0014939Y0293520D01*
X0014703Y0293499D01*
X0014466Y0293485D01*
X0014229Y0293476D01*
X0013992Y0293473D01*
X0013755Y0293476D01*
X0013518Y0293485D01*
X0013281Y0293499D01*
X0013045Y0293520D01*
X0012809Y0293546D01*
X0012574Y0293578D01*
X0012340Y0293615D01*
X0012107Y0293659D01*
X0011875Y0293708D01*
X0011644Y0293763D01*
X0011414Y0293823D01*
X0011187Y0293889D01*
X0010961Y0293961D01*
X0010736Y0294038D01*
X0010514Y0294121D01*
X0010294Y0294209D01*
X0010076Y0294302D01*
X0009860Y0294401D01*
X0009647Y0294505D01*
X0009436Y0294614D01*
X0009229Y0294728D01*
X0009024Y0294848D01*
X0008822Y0294972D01*
X0008623Y0295102D01*
X0008427Y0295236D01*
X0008235Y0295375D01*
X0008046Y0295518D01*
X0007861Y0295667D01*
X0007680Y0295819D01*
X0007502Y0295976D01*
X0007328Y0296138D01*
X0007159Y0296304D01*
X0006993Y0296473D01*
X0006831Y0296647D01*
X0006674Y0296825D01*
X0006522Y0297006D01*
X0006373Y0297191D01*
X0006230Y0297380D01*
X0006091Y0297572D01*
X0005957Y0297768D01*
X0005827Y0297967D01*
X0005703Y0298169D01*
X0005583Y0298374D01*
X0005469Y0298581D01*
X0005360Y0298792D01*
X0005256Y0299005D01*
X0005157Y0299221D01*
X0005064Y0299439D01*
X0004976Y0299659D01*
X0004893Y0299881D01*
X0004816Y0300106D01*
X0004744Y0300332D01*
X0004678Y0300559D01*
X0004618Y0300789D01*
X0004563Y0301020D01*
X0004514Y0301252D01*
X0004470Y0301485D01*
X0004433Y0301719D01*
X0004401Y0301954D01*
X0004375Y0302190D01*
X0004354Y0302426D01*
X0004340Y0302663D01*
X0004331Y0302900D01*
X0004328Y0303137D01*
D12*
X0043315Y0206759D02*
X0049315Y0206759D01*
X0049315Y0196759D02*
X0043315Y0196759D01*
X0043315Y0186759D02*
X0049315Y0186759D01*
X0049315Y0176759D02*
X0043315Y0176759D01*
X0043315Y0166759D02*
X0049315Y0166759D01*
X0049315Y0156759D02*
X0043315Y0156759D01*
X0043315Y0146759D02*
X0049315Y0146759D01*
X0049315Y0136759D02*
X0043315Y0136759D01*
X0043315Y0126759D02*
X0049315Y0126759D01*
X0049315Y0116759D02*
X0043315Y0116759D01*
D13*
X0327969Y0091444D03*
X0327969Y0067940D03*
X0357969Y0067940D03*
X0357969Y0091444D03*
X0357969Y0169948D03*
X0327969Y0169948D03*
X0327969Y0248846D03*
X0357969Y0248846D03*
D14*
X0355197Y0261712D02*
X0360740Y0261712D01*
X0360740Y0281397D02*
X0355197Y0281397D01*
X0355197Y0202657D02*
X0360740Y0202657D01*
X0360740Y0182972D02*
X0355197Y0182972D01*
X0355197Y0123916D02*
X0360740Y0123916D01*
X0360740Y0104231D02*
X0355197Y0104231D01*
X0355197Y0045176D02*
X0360740Y0045176D01*
X0360740Y0025491D02*
X0355197Y0025491D01*
X0085150Y0025491D02*
X0079606Y0025491D01*
X0079606Y0035334D02*
X0085150Y0035334D01*
X0085150Y0045176D02*
X0079606Y0045176D01*
X0079606Y0055019D02*
X0085150Y0055019D01*
X0085150Y0104231D02*
X0079606Y0104231D01*
X0079606Y0114074D02*
X0085150Y0114074D01*
X0085150Y0123916D02*
X0079606Y0123916D01*
X0079606Y0133759D02*
X0085150Y0133759D01*
X0085150Y0182972D02*
X0079606Y0182972D01*
X0079606Y0192814D02*
X0085150Y0192814D01*
X0085150Y0202657D02*
X0079606Y0202657D01*
X0079606Y0212499D02*
X0085150Y0212499D01*
X0085150Y0261712D02*
X0079606Y0261712D01*
X0079606Y0271554D02*
X0085150Y0271554D01*
X0085150Y0281397D02*
X0079606Y0281397D01*
X0079606Y0291239D02*
X0085150Y0291239D01*
M02*
