<?xml version="1.0" encoding="UTF-8" standalone="no"?>
<svg
   xmlns:dc="http://purl.org/dc/elements/1.1/"
   xmlns:cc="http://creativecommons.org/ns#"
   xmlns:rdf="http://www.w3.org/1999/02/22-rdf-syntax-ns#"
   xmlns:svg="http://www.w3.org/2000/svg"
   xmlns="http://www.w3.org/2000/svg"
   xmlns:sodipodi="http://sodipodi.sourceforge.net/DTD/sodipodi-0.dtd"
   xmlns:inkscape="http://www.inkscape.org/namespaces/inkscape"
   version="1.1"
   width="850.39368"
   height="566.92908"
   id="svg86"
   viewBox="0 0 850.39368 566.92908"
   sodipodi:docname="sliders front panel.svg"
   inkscape:version="0.92.2 5c3e80d, 2017-08-06">
  <metadata
     id="metadata92">
    <rdf:RDF>
      <cc:Work
         rdf:about="">
        <dc:format>image/svg+xml</dc:format>
        <dc:type
           rdf:resource="http://purl.org/dc/dcmitype/StillImage" />
        <dc:title></dc:title>
      </cc:Work>
    </rdf:RDF>
  </metadata>
  <defs
     id="defs90" />
  <sodipodi:namedview
     pagecolor="#ffffff"
     bordercolor="#666666"
     borderopacity="1"
     objecttolerance="10"
     gridtolerance="10"
     guidetolerance="10"
     inkscape:pageopacity="0"
     inkscape:pageshadow="2"
     inkscape:window-width="1282"
     inkscape:window-height="758"
     id="namedview88"
     showgrid="false"
     showguides="false"
     inkscape:zoom="0.90781484"
     inkscape:cx="425.19684"
     inkscape:cy="283.46454"
     inkscape:window-x="0"
     inkscape:window-y="0"
     inkscape:window-maximized="0"
     inkscape:current-layer="svg86" />
  <g
     id="g3825"
     transform="translate(420.67839,-306.98125)">
    <path
       inkscape:connector-curvature="0"
       id="path2"
       style="fill:none;stroke:#0000ff;stroke-width:0.21600001;stroke-linecap:butt;stroke-linejoin:bevel;stroke-dasharray:none"
       d="m 99.2126,722.8346 c 0,0 -198.4252,0 -198.4252,0" />
    <path
       inkscape:connector-curvature="0"
       id="path4"
       style="fill:none;stroke:#0000ff;stroke-width:0.21600001;stroke-linecap:butt;stroke-linejoin:bevel;stroke-dasharray:none"
       d="m -127.5591,439.3701 c 0,0 0,255.1181 0,255.1181" />
    <path
       inkscape:connector-curvature="0"
       id="path6"
       style="fill:none;stroke:#0000ff;stroke-width:0.21600001;stroke-linecap:butt;stroke-linejoin:bevel;stroke-dasharray:none"
       d="m -99.1723,411.1359 c -7.5181,0 -14.7283,2.9863 -20.0441,8.3024 -5.3161,5.3158 -8.3024,12.526 -8.3024,20.044" />
    <path
       inkscape:connector-curvature="0"
       id="path8"
       style="fill:none;stroke:#0000ff;stroke-width:0.21600001;stroke-linecap:butt;stroke-linejoin:bevel;stroke-dasharray:none"
       d="m -127.4374,694.544 c 0,7.5178 2.9863,14.728 8.3023,20.0438 5.3159,5.3158 12.5261,8.3027 20.0438,8.3027" />
    <path
       inkscape:connector-curvature="0"
       id="path10"
       style="fill:none;stroke:#0000ff;stroke-width:0.21600001;stroke-linecap:butt;stroke-linejoin:bevel;stroke-dasharray:none"
       d="m 99.2347,722.7986 c 15.6552,0 28.3462,-12.6912 28.3462,-28.3464" />
    <path
       inkscape:connector-curvature="0"
       id="path12"
       style="fill:none;stroke:#0000ff;stroke-width:0.21600001;stroke-linecap:butt;stroke-linejoin:bevel;stroke-dasharray:none"
       d="m 127.5282,439.3947 c 0,-7.518 -2.9863,-14.7282 -8.3024,-20.044 -5.3158,-5.3161 -12.5261,-8.3024 -20.0438,-8.3024" />
    <path
       inkscape:connector-curvature="0"
       id="path14"
       style="fill:none;stroke:#0000ff;stroke-width:0.21600001;stroke-linecap:butt;stroke-linejoin:bevel;stroke-dasharray:none"
       d="m 127.5591,694.4882 c 0,0 0,-255.1181 0,-255.1181" />
    <path
       inkscape:connector-curvature="0"
       id="path16"
       style="fill:none;stroke:#ff0000;stroke-width:0.21600001;stroke-linecap:butt;stroke-linejoin:bevel;stroke-dasharray:none"
       d="m -25.1575,484.0157 c 0,-1.761 -1.428,-3.1888 -3.189,-3.1888 -1.7611,0 -3.1889,1.4278 -3.1889,3.1888 0,1.7613 1.4278,3.1889 3.1889,3.1889 1.761,2e-4 3.189,-1.4276 3.189,-3.1886" />
    <text
       id="text20"
       y="712.08618"
       x="-117.6508">
      <tspan
         style="font-size:24px;font-family:DS-Digital;fill:#000000"
         id="tspan18"
         font-size="24.0000">nostradomus labTools</tspan>
    </text>
    <path
       inkscape:connector-curvature="0"
       id="path22"
       style="fill:none;stroke:#0000ff;stroke-width:0.21600001;stroke-linecap:butt;stroke-linejoin:bevel;stroke-dasharray:none"
       d="m 99.2126,411.0236 c 0,0 -198.4252,0 -198.4252,0" />
    <path
       inkscape:connector-curvature="0"
       id="path24"
       style="fill:none;stroke:#ff0000;stroke-width:0.21600001;stroke-linecap:butt;stroke-linejoin:bevel;stroke-dasharray:none"
       d="m 21.2598,489.685 c 0,0 0,191.3386 0,191.3386" />
    <path
       inkscape:connector-curvature="0"
       id="path26"
       style="fill:none;stroke:#ff0000;stroke-width:0.21600001;stroke-linecap:butt;stroke-linejoin:bevel;stroke-dasharray:none"
       d="m 35.4331,489.685 c 0,0 0,191.3386 0,191.3386" />
    <path
       inkscape:connector-curvature="0"
       id="path28"
       style="fill:none;stroke:#ff0000;stroke-width:0.21600001;stroke-linecap:butt;stroke-linejoin:bevel;stroke-dasharray:none"
       d="m 92.126,489.685 c 0,0 0,191.3386 0,191.3386" />
    <path
       inkscape:connector-curvature="0"
       id="path30"
       style="fill:none;stroke:#ff0000;stroke-width:0.21600001;stroke-linecap:butt;stroke-linejoin:bevel;stroke-dasharray:none"
       d="m 77.9528,489.685 c 0,0 0,191.3386 0,191.3386" />
    <path
       inkscape:connector-curvature="0"
       id="path32"
       style="fill:none;stroke:#ff0000;stroke-width:0.21600001;stroke-linecap:butt;stroke-linejoin:bevel;stroke-dasharray:none"
       d="m -77.9528,489.685 c 0,0 0,191.3386 0,191.3386" />
    <path
       inkscape:connector-curvature="0"
       id="path34"
       style="fill:none;stroke:#ff0000;stroke-width:0.21600001;stroke-linecap:butt;stroke-linejoin:bevel;stroke-dasharray:none"
       d="m -21.2598,489.685 c 0,0 0,191.3386 0,191.3386" />
    <path
       inkscape:connector-curvature="0"
       id="path36"
       style="fill:none;stroke:#ff0000;stroke-width:0.21600001;stroke-linecap:butt;stroke-linejoin:bevel;stroke-dasharray:none"
       d="m -35.4331,489.685 c 0,0 0,191.3386 0,191.3386" />
    <path
       inkscape:connector-curvature="0"
       id="path38"
       style="fill:none;stroke:#ff0000;stroke-width:0.21600001;stroke-linecap:butt;stroke-linejoin:bevel;stroke-dasharray:none"
       d="m -92.126,489.685 c 0,0 0,191.3386 0,191.3386" />
    <text
       id="text42"
       y="465.4086"
       x="-86.6716">
      <tspan
         style="font-size:48px;font-family:DS-Digital;fill:#000000"
         id="tspan40"
         font-size="48.0000">1</tspan>
    </text>
    <path
       inkscape:connector-curvature="0"
       id="path44"
       style="fill:none;stroke:#ff0000;stroke-width:0.21600001;stroke-linecap:butt;stroke-linejoin:bevel;stroke-dasharray:none"
       d="m -77.9528,489.685 c 0,0 -14.1732,0 -14.1732,0" />
    <path
       inkscape:connector-curvature="0"
       id="path46"
       style="fill:none;stroke:#ff0000;stroke-width:0.21600001;stroke-linecap:butt;stroke-linejoin:bevel;stroke-dasharray:none"
       d="m -21.2598,489.685 c 0,0 -14.1733,0 -14.1733,0" />
    <path
       inkscape:connector-curvature="0"
       id="path48"
       style="fill:none;stroke:#ff0000;stroke-width:0.21600001;stroke-linecap:butt;stroke-linejoin:bevel;stroke-dasharray:none"
       d="m 35.4331,489.685 c 0,0 -14.1733,0 -14.1733,0" />
    <path
       inkscape:connector-curvature="0"
       id="path50"
       style="fill:none;stroke:#ff0000;stroke-width:0.21600001;stroke-linecap:butt;stroke-linejoin:bevel;stroke-dasharray:none"
       d="m 92.126,489.685 c 0,0 -14.1732,0 -14.1732,0" />
    <path
       inkscape:connector-curvature="0"
       id="path52"
       style="fill:none;stroke:#ff0000;stroke-width:0.21600001;stroke-linecap:butt;stroke-linejoin:bevel;stroke-dasharray:none"
       d="m 92.126,681.0236 c 0,0 -14.1732,0 -14.1732,0" />
    <path
       inkscape:connector-curvature="0"
       id="path54"
       style="fill:none;stroke:#ff0000;stroke-width:0.21600001;stroke-linecap:butt;stroke-linejoin:bevel;stroke-dasharray:none"
       d="m 35.4331,681.0236 c 0,0 -14.1733,0 -14.1733,0" />
    <path
       inkscape:connector-curvature="0"
       id="path56"
       style="fill:none;stroke:#ff0000;stroke-width:0.21600001;stroke-linecap:butt;stroke-linejoin:bevel;stroke-dasharray:none"
       d="m -21.2598,681.0236 c 0,0 -14.1733,0 -14.1733,0" />
    <path
       inkscape:connector-curvature="0"
       id="path58"
       style="fill:none;stroke:#ff0000;stroke-width:0.21600001;stroke-linecap:butt;stroke-linejoin:bevel;stroke-dasharray:none"
       d="m -77.9528,681.0236 c 0,0 -14.1732,0 -14.1732,0" />
    <text
       id="text62"
       y="465.97269"
       x="-37.490501">
      <tspan
         style="font-size:48px;font-family:DS-Digital;fill:#000000"
         id="tspan60"
         font-size="48.0000">2</tspan>
    </text>
    <text
       id="text66"
       y="465.97269"
       x="19.514299">
      <tspan
         style="font-size:48px;font-family:DS-Digital;fill:#000000"
         id="tspan64"
         font-size="48.0000">3</tspan>
    </text>
    <text
       id="text70"
       y="465.4086"
       x="75.895401">
      <tspan
         style="font-size:48px;font-family:DS-Digital;fill:#000000"
         id="tspan68"
         font-size="48.0000">4</tspan>
    </text>
    <path
       inkscape:connector-curvature="0"
       id="path72"
       style="fill:none;stroke:#ff0000;stroke-width:0.21600001;stroke-linecap:butt;stroke-linejoin:bevel;stroke-dasharray:none"
       d="m -25.1575,686.6929 c 0,-1.7611 -1.428,-3.1889 -3.189,-3.1889 -1.7611,0 -3.1889,1.4278 -3.1889,3.1889 0,1.7613 1.4278,3.1889 3.1889,3.1889 1.761,2e-4 3.189,-1.4276 3.189,-3.1887" />
    <path
       inkscape:connector-curvature="0"
       id="path74"
       style="fill:none;stroke:#ff0000;stroke-width:0.21600001;stroke-linecap:butt;stroke-linejoin:bevel;stroke-dasharray:none"
       d="m -81.8504,686.6929 c 0,-1.7611 -1.428,-3.1889 -3.189,-3.1889 -1.7611,0 -3.1889,1.4278 -3.1889,3.1889 0,1.7613 1.4278,3.1889 3.1889,3.1889 1.761,2e-4 3.189,-1.4276 3.189,-3.1887" />
    <path
       inkscape:connector-curvature="0"
       id="path76"
       style="fill:none;stroke:#ff0000;stroke-width:0.21600001;stroke-linecap:butt;stroke-linejoin:bevel;stroke-dasharray:none"
       d="m 88.2283,686.6929 c 0,-1.7611 -1.428,-3.1889 -3.1889,-3.1889 -1.7612,0 -3.189,1.4278 -3.189,3.1889 0,1.7613 1.4278,3.1889 3.189,3.1889 1.7609,2e-4 3.1889,-1.4276 3.1889,-3.1887" />
    <path
       inkscape:connector-curvature="0"
       id="path78"
       style="fill:none;stroke:#ff0000;stroke-width:0.21600001;stroke-linecap:butt;stroke-linejoin:bevel;stroke-dasharray:none"
       d="m 31.5354,686.6929 c 0,-1.7611 -1.428,-3.1889 -3.1889,-3.1889 -1.7612,0 -3.189,1.4278 -3.189,3.1889 0,1.7613 1.4278,3.1889 3.189,3.1889 1.7609,2e-4 3.1889,-1.4276 3.1889,-3.1887" />
    <path
       inkscape:connector-curvature="0"
       id="path80"
       style="fill:none;stroke:#ff0000;stroke-width:0.21600001;stroke-linecap:butt;stroke-linejoin:bevel;stroke-dasharray:none"
       d="m -81.8504,484.0157 c 0,-1.761 -1.428,-3.1888 -3.189,-3.1888 -1.7611,0 -3.1889,1.4278 -3.1889,3.1888 0,1.7613 1.4278,3.1889 3.1889,3.1889 1.761,2e-4 3.189,-1.4276 3.189,-3.1886" />
    <path
       inkscape:connector-curvature="0"
       id="path82"
       style="fill:none;stroke:#ff0000;stroke-width:0.21600001;stroke-linecap:butt;stroke-linejoin:bevel;stroke-dasharray:none"
       d="m 88.2283,484.0157 c 0,-1.761 -1.428,-3.1888 -3.1889,-3.1888 -1.7612,0 -3.189,1.4278 -3.189,3.1888 0,1.7613 1.4278,3.1889 3.189,3.1889 1.7609,2e-4 3.1889,-1.4276 3.1889,-3.1886" />
    <path
       inkscape:connector-curvature="0"
       id="path84"
       style="fill:none;stroke:#ff0000;stroke-width:0.21600001;stroke-linecap:butt;stroke-linejoin:bevel;stroke-dasharray:none"
       d="m 31.5354,484.0157 c 0,-1.761 -1.428,-3.1888 -3.1889,-3.1888 -1.7612,0 -3.189,1.4278 -3.189,3.1888 0,1.7613 1.4278,3.1889 3.189,3.1889 1.7609,2e-4 3.1889,-1.4276 3.1889,-3.1886" />
  </g>
</svg>
