<?xml version="1.0" encoding="UTF-8" standalone="no"?>
<svg
   xmlns:dc="http://purl.org/dc/elements/1.1/"
   xmlns:cc="http://creativecommons.org/ns#"
   xmlns:rdf="http://www.w3.org/1999/02/22-rdf-syntax-ns#"
   xmlns:svg="http://www.w3.org/2000/svg"
   xmlns="http://www.w3.org/2000/svg"
   xmlns:sodipodi="http://sodipodi.sourceforge.net/DTD/sodipodi-0.dtd"
   xmlns:inkscape="http://www.inkscape.org/namespaces/inkscape"
   version="1.1"
   width="850.39368"
   height="566.92908"
   id="svg34"
   viewBox="0 0 850.39368 566.92908"
   sodipodi:docname="sliders rear panel.svg"
   inkscape:version="0.92.2 5c3e80d, 2017-08-06">
  <metadata
     id="metadata40">
    <rdf:RDF>
      <cc:Work
         rdf:about="">
        <dc:format>image/svg+xml</dc:format>
        <dc:type
           rdf:resource="http://purl.org/dc/dcmitype/StillImage" />
        <dc:title></dc:title>
      </cc:Work>
    </rdf:RDF>
  </metadata>
  <defs
     id="defs38" />
  <sodipodi:namedview
     pagecolor="#ffffff"
     bordercolor="#666666"
     borderopacity="1"
     objecttolerance="10"
     gridtolerance="10"
     guidetolerance="10"
     inkscape:pageopacity="0"
     inkscape:pageshadow="2"
     inkscape:window-width="1281"
     inkscape:window-height="758"
     id="namedview36"
     showgrid="false"
     inkscape:zoom="0.90663891"
     inkscape:cx="425.19684"
     inkscape:cy="283.46454"
     inkscape:window-x="0"
     inkscape:window-y="0"
     inkscape:window-maximized="0"
     inkscape:current-layer="svg34" />
  <g
     id="g58"
     transform="translate(430.16023,-283.46456)">
    <path
       inkscape:connector-curvature="0"
       id="path2"
       style="fill:none;stroke:#0000ff;stroke-width:0.21600001;stroke-linecap:butt;stroke-linejoin:bevel;stroke-dasharray:none"
       d="m 99.2126,722.8346 c 0,0 -198.4252,0 -198.4252,0" />
    <path
       inkscape:connector-curvature="0"
       id="path4"
       style="fill:none;stroke:#0000ff;stroke-width:0.21600001;stroke-linecap:butt;stroke-linejoin:bevel;stroke-dasharray:none"
       d="m -127.5591,439.3701 c 0,0 0,255.1181 0,255.1181" />
    <path
       inkscape:connector-curvature="0"
       id="path6"
       style="fill:none;stroke:#0000ff;stroke-width:0.21600001;stroke-linecap:butt;stroke-linejoin:bevel;stroke-dasharray:none"
       d="m -99.1723,411.1359 c -7.5181,0 -14.7283,2.9863 -20.0441,8.3024 -5.3161,5.3158 -8.3024,12.526 -8.3024,20.044" />
    <path
       inkscape:connector-curvature="0"
       id="path8"
       style="fill:none;stroke:#0000ff;stroke-width:0.21600001;stroke-linecap:butt;stroke-linejoin:bevel;stroke-dasharray:none"
       d="m -127.4374,694.544 c 0,7.5178 2.9863,14.728 8.3023,20.0438 5.3159,5.3158 12.5261,8.3027 20.0438,8.3027" />
    <path
       inkscape:connector-curvature="0"
       id="path10"
       style="fill:none;stroke:#0000ff;stroke-width:0.21600001;stroke-linecap:butt;stroke-linejoin:bevel;stroke-dasharray:none"
       d="m 99.2347,722.7986 c 15.6552,0 28.3462,-12.6912 28.3462,-28.3464" />
    <path
       inkscape:connector-curvature="0"
       id="path12"
       style="fill:none;stroke:#0000ff;stroke-width:0.21600001;stroke-linecap:butt;stroke-linejoin:bevel;stroke-dasharray:none"
       d="m 127.5282,439.3947 c 0,-7.518 -2.9863,-14.7282 -8.3024,-20.044 -5.3158,-5.3161 -12.5261,-8.3024 -20.0438,-8.3024" />
    <path
       inkscape:connector-curvature="0"
       id="path14"
       style="fill:none;stroke:#0000ff;stroke-width:0.21600001;stroke-linecap:butt;stroke-linejoin:bevel;stroke-dasharray:none"
       d="m 127.5591,694.4882 c 0,0 0,-255.1181 0,-255.1181" />
    <path
       inkscape:connector-curvature="0"
       id="path16"
       style="fill:none;stroke:#ff0000;stroke-width:0.21600001;stroke-linecap:butt;stroke-linejoin:bevel;stroke-dasharray:none"
       d="m -98.5039,435.1181 c 0,-2.7396 -2.2214,-4.9603 -4.9607,-4.9603 -2.7396,-3e-4 -4.9603,2.2207 -4.9603,4.96 -3e-4,2.7396 2.2207,4.9603 4.96,4.9609 2.7396,0 4.9603,-2.2213 4.9603,-4.9606" />
    <text
       id="text20"
       y="421.93329"
       x="-104.8119">
      <tspan
         style="font-size:12px;font-family:DS-Digital;fill:#000000"
         id="tspan18"
         font-size="12.0000">GND L1 - P1 - L2 - P2 - L3 - P3 - L4 - P4 +5V</tspan>
    </text>
    <path
       inkscape:connector-curvature="0"
       id="path22"
       style="fill:none;stroke:#0000ff;stroke-width:0.21600001;stroke-linecap:butt;stroke-linejoin:bevel;stroke-dasharray:none"
       d="m 99.2126,411.0236 c 0,0 -198.4252,0 -198.4252,0" />
    <path
       inkscape:connector-curvature="0"
       id="path24"
       style="fill:none;stroke:#ff0000;stroke-width:0.21600001;stroke-linecap:butt;stroke-linejoin:bevel;stroke-dasharray:none"
       d="m 108.4252,435.1181 c 0,-2.7396 -2.2214,-4.9603 -4.9606,-4.9603 -2.7396,-3e-4 -4.9603,2.2207 -4.9603,4.96 -4e-4,2.7396 2.2207,4.9603 4.9599,4.9609 2.7396,0 4.9603,-2.2213 4.9603,-4.9606" />
    <path
       inkscape:connector-curvature="0"
       id="path26"
       style="fill:none;stroke:#ff0000;stroke-width:0.21600001;stroke-linecap:butt;stroke-linejoin:bevel;stroke-dasharray:none"
       d="m 108.4252,698.7402 c 0,-2.7396 -2.2214,-4.9603 -4.9606,-4.9603 -2.7396,-4e-4 -4.9603,2.2207 -4.9603,4.9599 -4e-4,2.7396 2.2207,4.9603 4.9599,4.961 2.7396,0 4.9603,-2.2214 4.9603,-4.9606" />
    <path
       inkscape:connector-curvature="0"
       id="path28"
       style="fill:none;stroke:#ff0000;stroke-width:0.21600001;stroke-linecap:butt;stroke-linejoin:bevel;stroke-dasharray:none"
       d="m -98.5039,698.7402 c 0,-2.7396 -2.2214,-4.9603 -4.9607,-4.9603 -2.7396,-4e-4 -4.9603,2.2207 -4.9603,4.9599 -3e-4,2.7396 2.2207,4.9603 4.96,4.961 2.7396,0 4.9603,-2.2214 4.9603,-4.9606" />
    <text
       id="text32"
       y="716.02979"
       x="-106.17522">
      <tspan
         style="font-style:normal;font-variant:normal;font-weight:normal;font-stretch:normal;font-size:10.66666698px;font-family:DS-Digital;-inkscape-font-specification:'DS-Digital, Normal';font-variant-ligatures:normal;font-variant-caps:normal;font-variant-numeric:normal;font-feature-settings:normal;text-align:start;writing-mode:lr-tb;text-anchor:start;fill:#000000"
         id="tspan30"
         font-size="14.0000">Designed by the nostradomus engineering team</tspan>
    </text>
  </g>
</svg>
